<svg xmlns="http://www.w3.org/2000/svg" width="13.96" height="12.062" viewBox="0 0 13.96 12.062">
  <path id="ic_visibility_off_24px" d="M7.983,5.539a3.175,3.175,0,0,1,3.174,3.174,3.081,3.081,0,0,1-.229,1.162l1.854,1.854A7.5,7.5,0,0,0,14.96,8.714,7.508,7.508,0,0,0,7.977,3.952,7.393,7.393,0,0,0,5.45,4.4L6.822,5.768A3.081,3.081,0,0,1,7.983,5.539ZM1.635,3.806,3.082,5.254l.292.292A7.494,7.494,0,0,0,1,8.714a7.5,7.5,0,0,0,9.764,4.228l.267.267,1.86,1.854.806-.806L2.441,3ZM5.146,7.317,6.13,8.3a1.791,1.791,0,0,0-.051.413,1.9,1.9,0,0,0,1.9,1.9,1.791,1.791,0,0,0,.413-.051l.984.984A3.153,3.153,0,0,1,5.146,7.317Zm2.736-.5,2,2,.013-.1a1.9,1.9,0,0,0-1.9-1.9Z" transform="translate(-1 -3)" fill="#9d9d9d"/>
</svg>
