<svg xmlns="http://www.w3.org/2000/svg" width="9.762" height="8.956" viewBox="0 0 9.762 8.956">
  <path id="ic_favorite_border_24px" d="M9.077,3a2.923,2.923,0,0,0-2.2,1.02A2.923,2.923,0,0,0,4.684,3,2.658,2.658,0,0,0,2,5.684c0,1.845,1.659,3.348,4.173,5.633l.708.639.708-.644c2.514-2.279,4.173-3.783,4.173-5.628A2.658,2.658,0,0,0,9.077,3ZM6.93,10.59l-.049.049-.049-.049C4.509,8.486,2.976,7.1,2.976,5.684A1.668,1.668,0,0,1,4.684,3.976,1.908,1.908,0,0,1,6.427,5.128H7.34A1.9,1.9,0,0,1,9.077,3.976a1.668,1.668,0,0,1,1.708,1.708C10.786,7.1,9.253,8.486,6.93,10.59Z" transform="translate(-2 -3)" fill="#878787"/>
</svg>
